# xmcd CD database file
#
# Track frame offsets:
#	150
#	20267
#	31554
#	50267
#	65629
#	84392
#	98192
#	113629
#	127042
#	143229
#	158317
#	174354
#	201642
#	218342
#
# Disc length: 3136 seconds
#
# Revision: 0
# Processed by: cddbd v1.5.2PL0 Copyright (c) Steve Scherf et al.
# Submitted via: CDex 1.70beta2
#
DISCID=ae0c3e0e
DTITLE=Thorbjørn Risager and Emil Balsgaard - When They Ring Them Golden Bells
DYEAR=2014
DGENRE=Blues
TTITLE0=Goodnight Irene
TTITLE1=Down Younder
TTITLE2=I Won't Let You Down
TTITLE3=Me and the Devil
TTITLE4=Noget Om Gartneri
TTITLE5=That's Allright
TTITLE6=On My Way
TTITLE7=Roll 'em Pete
TTITLE8=Last Fair Deal
TTITLE9=When They Ring Them Golden Bells
TTITLE10=Bad Luck Blues
TTITLE11=Step Inside This House
TTITLE12=I Get the Blues When It Rains
TTITLE13=Noget Om Kraft
EXTD=YEAR: 2014
EXTT0=
EXTT1=
EXTT2=
EXTT3=
EXTT4=
EXTT5=
EXTT6=
EXTT7=
EXTT8=
EXTT9=
EXTT10=
EXTT11=
EXTT12=
EXTT13=
PLAYORDER=
